<?xml version="1.0" encoding="UTF-8" standalone="no"?>
<!-- Created with Inkscape (http://www.inkscape.org/) -->

<svg
   width="100mm"
   height="70mm"
   viewBox="0 0 100 70"
   version="1.1"
   id="svg1"
   xml:space="preserve"
   inkscape:version="1.4 (e7c3feb100, 2024-10-09)"
   sodipodi:docname="logo.svg"
   xmlns:inkscape="http://www.inkscape.org/namespaces/inkscape"
   xmlns:sodipodi="http://sodipodi.sourceforge.net/DTD/sodipodi-0.dtd"
   xmlns="http://www.w3.org/2000/svg"
   xmlns:svg="http://www.w3.org/2000/svg"><sodipodi:namedview
     id="namedview1"
     pagecolor="#ffffff"
     bordercolor="#000000"
     borderopacity="0.25"
     inkscape:showpageshadow="2"
     inkscape:pageopacity="0.0"
     inkscape:pagecheckerboard="0"
     inkscape:deskcolor="#d1d1d1"
     inkscape:document-units="mm"
     inkscape:zoom="1.0968551"
     inkscape:cx="59.260334"
     inkscape:cy="131.28443"
     inkscape:window-width="1914"
     inkscape:window-height="1040"
     inkscape:window-x="0"
     inkscape:window-y="0"
     inkscape:window-maximized="1"
     inkscape:current-layer="layer1" /><defs
     id="defs1" /><g
     inkscape:label="Layer 1"
     inkscape:groupmode="layer"
     id="layer1"
     transform="translate(3.8146972e-7,15)"><path
       style="fill:#3bb44a;fill-opacity:1;stroke-width:0.593205"
       d="M 46.793047,44.310654 C 34.966908,40.423437 34.88625,39.760625 45.874404,36.761702 56.039575,33.987384 69.169807,28.314252 73.536999,24.809622 74.90958,23.708142 72.058032,24.44193 66.988457,26.494751 59.537235,29.51198 49.80071,32.812014 36.156246,36.94483 33.082612,37.875818 33.402602,33.351053 36.949033,25.734565 44.05951,10.463765 63.611567,5.7293143 83.763798,14.398569 c 7.209515,3.101453 7.28605,3.439408 2.620898,11.572886 C 77.910217,40.7463 60.49341,48.813915 46.793047,44.310654 Z M 22.420094,33.284181 C 10.412817,28.054138 6.9631473,13.741856 14.118291,-1.1590447 20.938625,-15.36269 39.546084,7.9534353 34.698393,24.628902 31.852323,34.419041 29.682892,35.325304 28.719298,27.126633 27.954479,20.619211 23.785881,7.5138643 21.788734,5.3381433 c -0.549558,-0.598692 0.272146,3.532381 1.826007,9.1801707 3.531512,12.835907 4.854557,20.490017 3.5311,20.428193 -0.560217,-0.02616 -2.686803,-0.774215 -4.725747,-1.662326 z"
       id="path1" /></g></svg>
